{
  "source": "C:\\Users\\Peter\\Desktop\\stuff\\MIUN\\quantitative_research\\video_compression\\videos\\BVI-HD\\KineticFastPainting_1920x1080_60fps.mp4",
  "output": "C:\\Users\\Peter\\Desktop\\stuff\\MIUN\\quantitative_research\\video_compression\\compressed_videos\\BVI-HD\\vp9\\12\\KineticFastPainting_1920x1080_60fps_vp9.webm",
  "codec": "vp9",
  "ok": "Input #0, mov,mp4,m4a,3gp,3g2,mj2, from 'C:\\Users\\Peter\\Desktop\\stuff\\MIUN\\quantitative_research\\video_compression\\videos\\BVI-HD\\KineticFastPainting_1920x1080_60fps.mp4':\n  Metadata:\n    major_brand     : isom\n    minor_version   : 512\n    compatible_brands: isomiso2avc1mp41\n    encoder         : Lavf54.28.101\n  Duration: 00:00:05.00, start: 0.000000, bitrate: 477980 kb/s\n  Stream #0:0[0x1](und): Video: h264 (High 4:4:4 Predictive) (avc1 / 0x31637661), yuv420p(progressive), 1920x1080, 477974 kb/s, 60 fps, 60 tbr, 60 tbn (default)\n    Metadata:\n      handler_name    : VideoHandler\n      vendor_id       : [0][0][0][0]\n[out#0/webm @ 0000026def379480] Codec AVOption b:a (set bitrate (in bits/s)) has not been used for any stream. The most likely reason is either wrong type (e.g. a video option with no video streams) or that it is a private option of some decoder which was not actually used for any stream.\nStream mapping:\n  Stream #0:0 -> #0:0 (h264 (native) -> vp9 (libvpx-vp9))\nPress [q] to stop, [?] for help\n[libvpx-vp9 @ 0000026def38b700] v1.15.2-100-g40561f514\nOutput #0, webm, to 'C:\\Users\\Peter\\Desktop\\stuff\\MIUN\\quantitative_research\\video_compression\\compressed_videos\\BVI-HD\\vp9\\12\\KineticFastPainting_1920x1080_60fps_vp9.webm':\n  Metadata:\n    major_brand     : isom\n    minor_version   : 512\n    compatible_brands: isomiso2avc1mp41\n    encoder         : Lavf62.3.100\n  Stream #0:0(und): Video: vp9, yuv420p(tv, progressive), 1920x1080, q=2-31, 12000 kb/s, 60 fps, 1k tbn (default)\n    Metadata:\n      encoder         : Lavc62.11.100 libvpx-vp9\n      handler_name    : VideoHandler\n      vendor_id       : [0][0][0][0]\n    Side data:\n      cpb: bitrate max/min/avg: 0/0/0 buffer size: 12000000 vbv_delay: N/A\nframe=    0 fps=0.0 q=0.0 size=       0KiB time=N/A bitrate=N/A speed=N/A elapsed=0:00:00.50    \nframe=    1 fps=1.0 q=12.0 size=       1KiB time=00:00:00.01 bitrate= 303.8kbits/s speed=0.0159x elapsed=0:00:01.04    \nframe=    4 fps=2.5 q=47.0 size=       1KiB time=00:00:00.06 bitrate=  76.0kbits/s speed=0.0418x elapsed=0:00:01.59    \nframe=    7 fps=3.3 q=45.0 size=       1KiB time=00:00:00.11 bitrate=  43.4kbits/s speed=0.0543x elapsed=0:00:02.14    \nframe=   10 fps=3.7 q=44.0 size=       1KiB time=00:00:00.16 bitrate=  30.4kbits/s speed=0.0612x elapsed=0:00:02.72    \nframe=   13 fps=4.0 q=24.0 size=       1KiB time=00:00:00.20 bitrate=  25.3kbits/s speed=0.0614x elapsed=0:00:03.25    \nframe=   15 fps=4.0 q=42.0 size=       1KiB time=00:00:00.25 bitrate=  20.3kbits/s speed=0.066x elapsed=0:00:03.78    \nframe=   18 fps=4.2 q=42.0 size=       1KiB time=00:00:00.30 bitrate=  16.9kbits/s speed=0.0692x elapsed=0:00:04.33    \nframe=   21 fps=4.3 q=42.0 size=       1KiB time=00:00:00.35 bitrate=  14.5kbits/s speed=0.072x elapsed=0:00:04.86    \nframe=   24 fps=4.5 q=42.0 size=       1KiB time=00:00:00.40 bitrate=  12.7kbits/s speed=0.0742x elapsed=0:00:05.38    \nframe=   26 fps=4.4 q=42.0 size=       1KiB time=00:00:00.43 bitrate=  11.7kbits/s speed=0.0733x elapsed=0:00:05.91    \nframe=   29 fps=4.5 q=41.0 size=       1KiB time=00:00:00.48 bitrate=  10.5kbits/s speed=0.0751x elapsed=0:00:06.43    \nframe=   31 fps=4.4 q=42.0 size=       1KiB time=00:00:00.51 bitrate=   9.8kbits/s speed=0.074x elapsed=0:00:06.97    \nframe=   34 fps=4.5 q=42.0 size=       1KiB time=00:00:00.56 bitrate=   8.9kbits/s speed=0.0754x elapsed=0:00:07.51    \nframe=   36 fps=4.5 q=42.0 size=       1KiB time=00:00:00.60 bitrate=   8.4kbits/s speed=0.0747x elapsed=0:00:08.03    \nframe=   39 fps=4.5 q=40.0 size=       1KiB time=00:00:00.65 bitrate=   7.8kbits/s speed=0.0756x elapsed=0:00:08.59    \nframe=   42 fps=4.6 q=42.0 size=       1KiB time=00:00:00.70 bitrate=   7.2kbits/s speed=0.0764x elapsed=0:00:09.15    \nframe=   44 fps=4.5 q=42.0 size=       1KiB time=00:00:00.73 bitrate=   6.9kbits/s speed=0.0756x elapsed=0:00:09.70    \nframe=   47 fps=4.6 q=42.0 size=       1KiB time=00:00:00.78 bitrate=   6.5kbits/s speed=0.0766x elapsed=0:00:10.22    \nframe=   50 fps=4.6 q=43.0 size=       1KiB time=00:00:00.83 bitrate=   6.1kbits/s speed=0.0774x elapsed=0:00:10.76    \nframe=   52 fps=4.6 q=43.0 size=       1KiB time=00:00:00.86 bitrate=   5.8kbits/s speed=0.0763x elapsed=0:00:11.35    \nframe=   55 fps=4.6 q=31.0 size=       1KiB time=00:00:00.91 bitrate=   5.5kbits/s speed=0.077x elapsed=0:00:11.90    \nframe=   59 fps=4.7 q=42.0 size=       1KiB time=00:00:00.98 bitrate=   5.1kbits/s speed=0.079x elapsed=0:00:12.45    \nframe=   62 fps=4.8 q=42.0 size=       1KiB time=00:00:01.03 bitrate=   4.9kbits/s speed=0.0795x elapsed=0:00:12.99    \nframe=   65 fps=4.8 q=40.0 size=       1KiB time=00:00:01.08 bitrate=   4.7kbits/s speed=0.0799x elapsed=0:00:13.55    \nframe=   68 fps=4.8 q=41.0 size=       1KiB time=00:00:01.13 bitrate=   4.5kbits/s speed=0.0804x elapsed=0:00:14.09    \nframe=   70 fps=4.8 q=41.0 size=       1KiB time=00:00:01.16 bitrate=   4.3kbits/s speed=0.0792x elapsed=0:00:14.72    \nframe=   72 fps=4.7 q=42.0 size=       1KiB time=00:00:01.20 bitrate=   4.2kbits/s speed=0.0784x elapsed=0:00:15.29    \nframe=   73 fps=4.6 q=29.0 size=       1KiB time=00:00:01.21 bitrate=   4.2kbits/s speed=0.0766x elapsed=0:00:15.89    \nframe=   75 fps=4.6 q=41.0 size=       1KiB time=00:00:01.25 bitrate=   4.1kbits/s speed=0.0759x elapsed=0:00:16.46    \nframe=   77 fps=4.5 q=42.0 size=       1KiB time=00:00:01.28 bitrate=   3.9kbits/s speed=0.0752x elapsed=0:00:17.07    \nframe=   80 fps=4.5 q=42.0 size=       1KiB time=00:00:01.33 bitrate=   3.8kbits/s speed=0.0757x elapsed=0:00:17.61    \nframe=   83 fps=4.6 q=42.0 size=       1KiB time=00:00:01.38 bitrate=   3.7kbits/s speed=0.0761x elapsed=0:00:18.18    \nframe=   86 fps=4.6 q=42.0 size=       1KiB time=00:00:01.43 bitrate=   3.5kbits/s speed=0.0764x elapsed=0:00:18.75    \nframe=   88 fps=4.6 q=42.0 size=       1KiB time=00:00:01.46 bitrate=   3.5kbits/s speed=0.0759x elapsed=0:00:19.32    \nframe=   90 fps=4.5 q=43.0 size=       1KiB time=00:00:01.50 bitrate=   3.4kbits/s speed=0.0753x elapsed=0:00:19.91    \nframe=   93 fps=4.5 q=41.0 size=       1KiB time=00:00:01.55 bitrate=   3.3kbits/s speed=0.0756x elapsed=0:00:20.49    \nframe=   96 fps=4.6 q=43.0 size=       1KiB time=00:00:01.60 bitrate=   3.2kbits/s speed=0.0761x elapsed=0:00:21.03    \nframe=   97 fps=4.5 q=31.0 size=       1KiB time=00:00:01.61 bitrate=   3.1kbits/s speed=0.0747x elapsed=0:00:21.64    \nframe=   99 fps=4.5 q=42.0 size=       1KiB time=00:00:01.65 bitrate=   3.1kbits/s speed=0.0742x elapsed=0:00:22.24    \nframe=  102 fps=4.5 q=43.0 size=       1KiB time=00:00:01.68 bitrate=   3.0kbits/s speed=0.0738x elapsed=0:00:22.81    \nframe=  104 fps=4.5 q=43.0 size=       1KiB time=00:00:01.73 bitrate=   2.9kbits/s speed=0.0743x elapsed=0:00:23.34    \nframe=  107 fps=4.5 q=42.0 size=       1KiB time=00:00:01.78 bitrate=   2.8kbits/s speed=0.0747x elapsed=0:00:23.86    \nframe=  109 fps=4.5 q=30.0 size=       1KiB time=00:00:01.81 bitrate=   2.8kbits/s speed=0.0745x elapsed=0:00:24.39    \nframe=  111 fps=4.5 q=41.0 size=       1KiB time=00:00:01.85 bitrate=   2.7kbits/s speed=0.0742x elapsed=0:00:24.94    \nframe=  113 fps=4.4 q=41.0 size=       1KiB time=00:00:01.88 bitrate=   2.7kbits/s speed=0.0739x elapsed=0:00:25.47    \nframe=  116 fps=4.5 q=42.0 size=       1KiB time=00:00:01.93 bitrate=   2.6kbits/s speed=0.0744x elapsed=0:00:25.99    \nframe=  120 fps=4.5 q=40.0 size=       1KiB time=00:00:01.98 bitrate=   2.6kbits/s speed=0.0747x elapsed=0:00:26.55    \nframe=  122 fps=4.5 q=39.0 size=       1KiB time=00:00:02.03 bitrate=   2.5kbits/s speed=0.075x elapsed=0:00:27.12    \nframe=  124 fps=4.5 q=37.0 size=       1KiB time=00:00:02.05 bitrate=   2.5kbits/s speed=0.074x elapsed=0:00:27.69    \nframe=  126 fps=4.4 q=38.0 size=       1KiB time=00:00:02.10 bitrate=   2.4kbits/s speed=0.074x elapsed=0:00:28.37    \nframe=  128 fps=4.4 q=38.0 size=       1KiB time=00:00:02.13 bitrate=   2.4kbits/s speed=0.0736x elapsed=0:00:28.96    \nframe=  132 fps=4.5 q=41.0 size=    2560KiB time=00:00:02.20 bitrate=9532.5kbits/s speed=0.0746x elapsed=0:00:29.50    \nframe=  134 fps=4.5 q=42.0 size=    2560KiB time=00:00:02.23 bitrate=9390.2kbits/s speed=0.0743x elapsed=0:00:30.05    \nframe=  136 fps=4.4 q=42.0 size=    2560KiB time=00:00:02.26 bitrate=9252.1kbits/s speed=0.074x elapsed=0:00:30.61    \nframe=  138 fps=4.4 q=42.0 size=    2560KiB time=00:00:02.30 bitrate=9118.1kbits/s speed=0.0737x elapsed=0:00:31.20    \nframe=  140 fps=4.4 q=43.0 size=    2560KiB time=00:00:02.33 bitrate=8987.8kbits/s speed=0.0734x elapsed=0:00:31.76    \nframe=  143 fps=4.4 q=42.0 size=    2560KiB time=00:00:02.38 bitrate=8799.2kbits/s speed=0.0738x elapsed=0:00:32.29    \nframe=  145 fps=4.4 q=43.0 size=    2560KiB time=00:00:02.41 bitrate=8677.9kbits/s speed=0.0736x elapsed=0:00:32.82    \nframe=  146 fps=4.4 q=43.0 size=    2560KiB time=00:00:02.43 bitrate=8618.4kbits/s speed=0.0729x elapsed=0:00:33.36    \nframe=  149 fps=4.4 q=42.0 size=    2560KiB time=00:00:02.48 bitrate=8444.9kbits/s speed=0.0732x elapsed=0:00:33.93    \nframe=  151 fps=4.4 q=43.0 size=    2560KiB time=00:00:02.51 bitrate=8333.1kbits/s speed=0.0729x elapsed=0:00:34.50    \nframe=  153 fps=4.4 q=31.0 size=    2560KiB time=00:00:02.53 bitrate=8278.2kbits/s speed=0.0722x elapsed=0:00:35.08    \nframe=  155 fps=4.3 q=42.0 size=    2560KiB time=00:00:02.58 bitrate=8118.0kbits/s speed=0.0723x elapsed=0:00:35.73    \nframe=  157 fps=4.3 q=42.0 size=    2560KiB time=00:00:02.60 bitrate=8066.0kbits/s speed=0.0716x elapsed=0:00:36.30    \nframe=  158 fps=4.3 q=42.0 size=    2560KiB time=00:00:02.63 bitrate=7963.9kbits/s speed=0.0712x elapsed=0:00:37.00    \nframe=  160 fps=4.3 q=42.0 size=    2560KiB time=00:00:02.65 bitrate=7913.8kbits/s speed=0.0705x elapsed=0:00:37.59    \nframe=  161 fps=4.2 q=41.0 size=    2560KiB time=00:00:02.68 bitrate=7815.5kbits/s speed=0.0702x elapsed=0:00:38.23    \nframe=  163 fps=4.2 q=41.0 size=    2560KiB time=00:00:02.71 bitrate=7719.6kbits/s speed=0.0701x elapsed=0:00:38.75    \nframe=  164 fps=4.2 q=41.0 size=    2560KiB time=00:00:02.73 bitrate=7672.5kbits/s speed=0.0695x elapsed=0:00:39.33    \nframe=  167 fps=4.2 q=41.0 size=    2560KiB time=00:00:02.78 bitrate=7534.7kbits/s speed=0.0698x elapsed=0:00:39.88    \nframe=  168 fps=4.1 q=41.0 size=    2560KiB time=00:00:02.80 bitrate=7489.8kbits/s speed=0.0691x elapsed=0:00:40.49    \nframe=  170 fps=4.1 q=41.0 size=    2560KiB time=00:00:02.83 bitrate=7401.7kbits/s speed=0.0688x elapsed=0:00:41.17    \nframe=  171 fps=4.1 q=29.0 size=    2560KiB time=00:00:02.85 bitrate=7358.4kbits/s speed=0.0681x elapsed=0:00:41.83    \nframe=  173 fps=4.1 q=41.0 size=    2560KiB time=00:00:02.88 bitrate=7273.4kbits/s speed=0.068x elapsed=0:00:42.41    \nframe=  175 fps=4.1 q=42.0 size=    2560KiB time=00:00:02.91 bitrate=7190.2kbits/s speed=0.0678x elapsed=0:00:43.03    \nframe=  177 fps=4.1 q=30.0 size=    2560KiB time=00:00:02.93 bitrate=7149.4kbits/s speed=0.0672x elapsed=0:00:43.64    \nframe=  179 fps=4.0 q=41.0 size=    2560KiB time=00:00:02.96 bitrate=7069.1kbits/s speed=0.067x elapsed=0:00:44.26    \nframe=  181 fps=4.0 q=41.0 size=    2560KiB time=00:00:03.00 bitrate=6990.5kbits/s speed=0.0669x elapsed=0:00:44.87    \nframe=  182 fps=4.0 q=41.0 size=    2560KiB time=00:00:03.03 bitrate=6913.7kbits/s speed=0.0667x elapsed=0:00:45.46    \nframe=  184 fps=4.0 q=42.0 size=    2560KiB time=00:00:03.06 bitrate=6838.5kbits/s speed=0.0666x elapsed=0:00:46.07    \nframe=  186 fps=4.0 q=40.0 size=    2560KiB time=00:00:03.10 bitrate=6765.0kbits/s speed=0.0665x elapsed=0:00:46.58    \nframe=  188 fps=4.0 q=41.0 size=    2560KiB time=00:00:03.13 bitrate=6693.0kbits/s speed=0.0664x elapsed=0:00:47.16    \nframe=  190 fps=4.0 q=41.0 size=    2560KiB time=00:00:03.16 bitrate=6622.6kbits/s speed=0.0662x elapsed=0:00:47.80    \nframe=  192 fps=4.0 q=41.0 size=    2560KiB time=00:00:03.20 bitrate=6553.6kbits/s speed=0.066x elapsed=0:00:48.45    \nframe=  194 fps=4.0 q=42.0 size=    2560KiB time=00:00:03.23 bitrate=6486.0kbits/s speed=0.0659x elapsed=0:00:49.09    \nframe=  197 fps=4.0 q=41.0 size=    2560KiB time=00:00:03.28 bitrate=6387.3kbits/s speed=0.0661x elapsed=0:00:49.69    \nframe=  200 fps=4.0 q=43.0 size=    2560KiB time=00:00:03.31 bitrate=6323.1kbits/s speed=0.066x elapsed=0:00:50.25    \nframe=  200 fps=3.9 q=43.0 size=    2560KiB time=00:00:03.33 bitrate=6291.5kbits/s speed=0.0656x elapsed=0:00:50.80    \nframe=  202 fps=3.9 q=43.0 size=    2560KiB time=00:00:03.36 bitrate=6229.2kbits/s speed=0.0656x elapsed=0:00:51.35    \nframe=  205 fps=3.9 q=42.0 size=    2560KiB time=00:00:03.41 bitrate=6138.0kbits/s speed=0.0658x elapsed=0:00:51.92    \nframe=  206 fps=3.9 q=42.0 size=    2560KiB time=00:00:03.43 bitrate=6108.2kbits/s speed=0.0653x elapsed=0:00:52.56    \nframe=  209 fps=3.9 q=41.0 size=    2560KiB time=00:00:03.48 bitrate=6020.5kbits/s speed=0.0656x elapsed=0:00:53.09    \nframe=  212 fps=4.0 q=41.0 size=    2560KiB time=00:00:03.53 bitrate=5935.3kbits/s speed=0.0658x elapsed=0:00:53.66    \nframe=  213 fps=3.9 q=29.0 size=    2560KiB time=00:00:03.55 bitrate=5907.5kbits/s speed=0.0654x elapsed=0:00:54.24    \nframe=  215 fps=3.9 q=40.0 size=    2560KiB time=00:00:03.58 bitrate=5852.5kbits/s speed=0.0654x elapsed=0:00:54.82    \nframe=  218 fps=3.9 q=40.0 size=    2560KiB time=00:00:03.63 bitrate=5772.0kbits/s speed=0.0656x elapsed=0:00:55.35    \nframe=  220 fps=3.9 q=40.0 size=    2560KiB time=00:00:03.66 bitrate=5719.5kbits/s speed=0.0656x elapsed=0:00:55.92    \nframe=  223 fps=3.9 q=40.0 size=    2560KiB time=00:00:03.71 bitrate=5642.6kbits/s speed=0.0658x elapsed=0:00:56.46    \nframe=  224 fps=3.9 q=40.0 size=    2560KiB time=00:00:03.73 bitrate=5617.4kbits/s speed=0.0654x elapsed=0:00:57.08    \nframe=  226 fps=3.9 q=40.0 size=    2560KiB time=00:00:03.76 bitrate=5567.7kbits/s speed=0.0654x elapsed=0:00:57.61    \nframe=  229 fps=3.9 q=41.0 size=    2560KiB time=00:00:03.81 bitrate=5494.7kbits/s speed=0.0656x elapsed=0:00:58.16    \nframe=  232 fps=4.0 q=41.0 size=    2560KiB time=00:00:03.86 bitrate=5423.7kbits/s speed=0.0659x elapsed=0:00:58.70    \nframe=  234 fps=4.0 q=41.0 size=    2560KiB time=00:00:03.90 bitrate=5377.3kbits/s speed=0.0659x elapsed=0:00:59.21    \nframe=  236 fps=3.9 q=42.0 size=    2560KiB time=00:00:03.93 bitrate=5331.7kbits/s speed=0.0658x elapsed=0:00:59.81    \nframe=  237 fps=3.9 q=29.0 size=    2560KiB time=00:00:03.95 bitrate=5309.2kbits/s speed=0.0654x elapsed=0:01:00.38    \nframe=  240 fps=3.9 q=42.0 size=    2560KiB time=00:00:04.00 bitrate=5242.9kbits/s speed=0.0657x elapsed=0:01:00.92    \nframe=  242 fps=3.9 q=42.0 size=    2560KiB time=00:00:04.03 bitrate=5199.6kbits/s speed=0.0656x elapsed=0:01:01.47    \nframe=  245 fps=4.0 q=42.0 size=    2560KiB time=00:00:04.08 bitrate=5135.9kbits/s speed=0.0658x elapsed=0:01:02.02    \nframe=  247 fps=3.9 q=43.0 size=    2560KiB time=00:00:04.11 bitrate=5094.3kbits/s speed=0.0657x elapsed=0:01:02.61    \nframe=  250 fps=4.0 q=42.0 size=    2560KiB time=00:00:04.16 bitrate=5033.2kbits/s speed=0.066x elapsed=0:01:03.14    \nframe=  253 fps=4.0 q=42.0 size=    2560KiB time=00:00:04.21 bitrate=4973.5kbits/s speed=0.0662x elapsed=0:01:03.68    \nframe=  255 fps=4.0 q=42.0 size=    2560KiB time=00:00:04.25 bitrate=4934.5kbits/s speed=0.0662x elapsed=0:01:04.23    \nframe=  257 fps=4.0 q=30.0 size=    2560KiB time=00:00:04.28 bitrate=4896.1kbits/s speed=0.0661x elapsed=0:01:04.81    \nframe=  260 fps=4.0 q=43.0 size=    5376KiB time=00:00:04.33 bitrate=10163.1kbits/s speed=0.0663x elapsed=0:01:05.36    \nframe=  262 fps=4.0 q=43.0 size=    5376KiB time=00:00:04.36 bitrate=10085.5kbits/s speed=0.0663x elapsed=0:01:05.89    \nframe=  266 fps=4.0 q=42.0 size=    5376KiB time=00:00:04.43 bitrate=9933.9kbits/s speed=0.0667x elapsed=0:01:06.44    \nframe=  268 fps=4.0 q=42.0 size=    5376KiB time=00:00:04.46 bitrate=9859.7kbits/s speed=0.0666x elapsed=0:01:07.04    \nframe=  270 fps=4.0 q=42.0 size=    5376KiB time=00:00:04.50 bitrate=9786.7kbits/s speed=0.0665x elapsed=0:01:07.61    \nframe=  273 fps=4.0 q=41.0 size=    5376KiB time=00:00:04.55 bitrate=9679.2kbits/s speed=0.0667x elapsed=0:01:08.19    \nframe=  276 fps=4.0 q=41.0 size=    5376KiB time=00:00:04.60 bitrate=9574.0kbits/s speed=0.0669x elapsed=0:01:08.74    \nframe=  276 fps=4.0 q=41.0 size=    5376KiB time=00:00:04.60 bitrate=9574.0kbits/s speed=0.0663x elapsed=0:01:09.34    \nframe=  276 fps=3.9 q=41.0 size=    5376KiB time=00:00:04.60 bitrate=9574.0kbits/s speed=0.0658x elapsed=0:01:09.89    \nframe=  276 fps=3.9 q=41.0 size=    5376KiB time=00:00:04.60 bitrate=9574.0kbits/s speed=0.0653x elapsed=0:01:10.42    \nframe=  276 fps=3.9 q=41.0 size=    5376KiB time=00:00:04.60 bitrate=9574.0kbits/s speed=0.0648x elapsed=0:01:10.98    \nframe=  276 fps=3.9 q=41.0 size=    5376KiB time=00:00:04.60 bitrate=9574.0kbits/s speed=0.0643x elapsed=0:01:11.51    \nframe=  276 fps=3.8 q=41.0 size=    5376KiB time=00:00:04.60 bitrate=9574.0kbits/s speed=0.0639x elapsed=0:01:12.04    \nframe=  276 fps=3.8 q=41.0 size=    5376KiB time=00:00:04.60 bitrate=9574.0kbits/s speed=0.0633x elapsed=0:01:12.62    \nframe=  276 fps=3.8 q=41.0 size=    5376KiB time=00:00:04.60 bitrate=9574.0kbits/s speed=0.0629x elapsed=0:01:13.14    \n[out#0/webm @ 0000026def379480] video:6383KiB audio:0KiB subtitle:0KiB other streams:0KiB global headers:0KiB muxing overhead: 0.045320%\nframe=  300 fps=4.1 q=42.0 Lsize=    6385KiB time=00:00:05.00 bitrate=10461.9kbits/s speed=0.0682x elapsed=0:01:13.33    \n",
  "seconds": 73.67888855934143,
  "probe_out": {}
}